#!OML:ASF H:\MichaelJackson\Top Level 1\Subject 1\Session 1\male.ASF
:FULLY-SPECIFIED
:DEGREES
858
root 5.27483 16.892 3.61157 3.25515 8.2644 -8.46098
lowerback 0.664272 3.59187 4.91981
upperback 4.27578 4.56885 5.05418
thorax 4.02748 2.35793 2.62077
lowerneck -8.47892 -6.81737 1.19287
upperneck 38.5272 -10.0142 -0.628025
head 14.6215 -4.07735 -1.86457
rclavicle 2.08724e-014 -1.19271e-014
rhumerus -19.4991 35.0884 -84.1682
rradius 136.755
rwrist -11.0533
rhand -46.9547 -60.1062
rfingers 7.12502
rthumb -19.6637 630.868
lclavicle 2.08724e-014 -1.19271e-014
lhumerus -64.0837 -6.10308 94.0241
lradius 50.9421
lwrist 8.95414
lhand 0.846531 11.4251
lfingers 7.12502
lthumb 26.401 39.6069
rfemur -17.2219 -3.92461 32.5309
rtibia 32.9515
rfoot -16.3559 -1.6345
rtoes 27.8637
lfemur -39.6307 -6.03588 -11.4281
ltibia 61.6113
lfoot 1.31474 -4.30245
ltoes 23.515
859
root 5.26144 16.8521 3.64169 3.11631 8.25985 -8.94828
lowerback 0.684876 3.53364 5.25721
upperback 4.26936 4.48283 5.22679
thorax 4.02462 2.32347 2.61064
lowerneck -8.45803 -6.76378 1.21893
upperneck 38.4739 -9.919 -0.685351
head 14.5853 -4.0447 -1.87596
rclavicle -3.33958e-014 1.59028e-015
rhumerus -19.3332 35.0794 -84.1258
rradius 136.7
rwrist -11.0501
rhand -46.9764 -60.2163
rfingers 7.12502
rthumb -19.6846 630.76
lclavicle -3.33958e-014 1.59028e-015
lhumerus -64.0489 -5.98993 94.2401
lradius 50.8317
lwrist 9.11384
lhand 0.934426 11.6184
lfingers 7.12502
lthumb 26.4851 39.7875
rfemur -16.9339 -3.99715 33.1723
rtibia 32.8509
rfoot -16.9113 -1.70823
rtoes 29.1123
lfemur -39.944 -5.87226 -10.9588
ltibia 62.4842
lfoot 1.18685 -4.06851
ltoes 23.0766
860
root 5.249 16.82 3.67114 3.01675 8.31808 -9.41417
lowerback 0.649942 3.4551 5.57335
upperback 4.26674 4.36502 5.39671
thorax 4.05541 2.27278 2.61293
lowerneck -8.42594 -6.71272 1.25014
upperneck 38.4402 -9.83221 -0.734551
head 14.5566 -4.013 -1.88625
rclavicle -1.55052e-014 -6.36111e-015
rhumerus -19.2042 35.0635 -84.1263
rradius 136.624
rwrist -10.9687
rhand -47.0038 -60.2988
rfingers 7.12502
rthumb -19.711 630.681
lclavicle -1.55052e-014 -6.36111e-015
lhumerus -63.9731 -5.90966 94.5202
lradius 50.7409
lwrist 9.45654
lhand 0.913194 11.8691
lfingers 7.12502
lthumb 26.4648 40.0413
rfemur -16.7304 -4.1574 33.7725
rtibia 32.7872
rfoot -17.3584 -1.68967
rtoes 30.1042
lfemur -40.2657 -5.80619 -10.4919
ltibia 63.2857
lfoot 1.07699 -3.84568
ltoes 22.4831
861
root 5.23753 16.795 3.69983 2.95479 8.43098 -9.84797
lowerback 0.564105 3.36816 5.85293
upperback 4.26804 4.2313 5.56352
thorax 4.11612 2.21337 2.63547
lowerneck -8.38631 -6.67237 1.2859
upperneck 38.4298 -9.76746 -0.771202
head 14.538 -3.98725 -1.89574
rclavicle -9.93923e-016 4.77083e-014
rhumerus -19.1255 35.0339 -84.1557
rradius 136.54
rwrist -10.8172
rhand -47.0356 -60.3546
rfingers 7.12502
rthumb -19.7415 630.628
lclavicle -9.93923e-016 4.77083e-014
lhumerus -63.8436 -5.87224 94.8567
lradius 50.6469
lwrist 9.85939
lhand 0.824296 12.1172
lfingers 7.12502
lthumb 26.3797 40.3021
rfemur -16.5981 -4.41594 34.3107
rtibia 32.7455
rfoot -17.7272 -1.53052
rtoes 30.8901
lfemur -40.5951 -5.83187 -10.0391
ltibia 64.0189
lfoot 0.989405 -3.62044
ltoes 22.0468
862
root 5.22655 16.7774 3.72777 2.92395 8.58499 -10.2288
lowerback 0.447868 3.28279 6.06849
upperback 4.27071 4.09745 5.72146
thorax 4.19084 2.15217 2.68593
lowerneck -8.34124 -6.64823 1.33024
upperneck 38.4424 -9.73394 -0.794711
head 14.5295 -3.97067 -1.90621
rclavicle 7.51406e-014 -2.62396e-014
rhumerus -19.111 34.9878 -84.2094
rradius 136.461
rwrist -10.6355
rhand -47.0677 -60.3939
rfingers 7.12502
rthumb -19.7724 630.592
lclavicle 7.51406e-014 -2.62396e-014
lhumerus -63.6582 -5.87522 95.2244
lradius 50.5325
lwrist 10.1862
lhand 0.737861 12.3005
lfingers 7.12502
lthumb 26.2969 40.4978
rfemur -16.5095 -4.76738 34.7626
rtibia 32.7033
rfoot -18.0512 -1.21534
rtoes 31.4854
lfemur -40.9353 -5.92913 -9.62733
ltibia 64.6819
lfoot 0.98563 -3.419
ltoes 21.7058
863
root 5.21536 16.7661 3.75532 2.90858 8.76204 -10.5441
lowerback 0.324732 3.20588 6.20297
upperback 4.27603 3.97551 5.86409
thorax 4.26703 2.09454 2.76564
lowerneck -8.29167 -6.64151 1.38127
upperneck 38.4735 -9.73621 -0.795903
head 14.53 -3.96445 -1.91414
rclavicle 5.1684e-014 6.04305e-014
rhumerus -19.1713 34.93 -84.2977
rradius 136.404
rwrist -10.4646
rhand -47.0916 -60.418
rfingers 7.12502
rthumb -19.7953 630.57
lclavicle 5.1684e-014 6.04305e-014
lhumerus -63.4402 -5.91585 95.5919
lradius 50.4159
lwrist 10.331
lhand 0.707386 12.4068
lfingers 7.12502
lthumb 26.2678 40.6084
rfemur -16.4269 -5.18921 35.1179
rtibia 32.6407
rfoot -18.3398 -0.751476
rtoes 32.0322
lfemur -41.2706 -6.06763 -9.2722
ltibia 65.2712
lfoot 1.10699 -3.24534
ltoes 21.5611
864
root 5.20357 16.7599 3.78245 2.90543 8.94115 -10.782
lowerback 0.208521 3.14649 6.25114
upperback 4.28292 3.87986 5.97923
thorax 4.33645 2.0475 2.86432
lowerneck -8.2458 -6.65243 1.44092
upperneck 38.5175 -9.77795 -0.767104
head 14.539 -3.96903 -1.91748
rclavicle 3.35946e-014 3.97569e-015
rhumerus -19.3031 34.8554 -84.4202
rradius 136.381
rwrist -10.3498
rhand -47.1114 -60.4064
rfingers 7.12502
rthumb -19.8144 630.584
lclavicle 3.35946e-014 3.97569e-015
lhumerus -63.2129 -5.99276 95.9229
lradius 50.3177
lwrist 10.2318
lhand 0.790916 12.3955
lfingers 7.12502
lthumb 26.3477 40.5852
rfemur -16.3338 -5.65565 35.3738
rtibia 32.5472
rfoot -18.6015 -0.182421
rtoes 32.4818
lfemur -41.5899 -6.20947 -8.9927
ltibia 65.792
lfoot 1.32709 -3.09543
ltoes 21.6168
865
root 5.19079 16.7572 3.80948 2.9122 9.09816 -10.9389
lowerback 0.105746 3.10765 6.21785
upperback 4.29081 3.81579 6.05696
thorax 4.39588 2.01387 2.96879
lowerneck -8.2041 -6.67447 1.51141
upperneck 38.5631 -9.8494 -0.708899
head 14.5512 -3.9806 -1.91513
rclavicle -4.77083e-014 -6.44062e-014
rhumerus -19.4874 34.7813 -84.5823
rradius 136.393
rwrist -10.302
rhand -47.1287 -60.3686
rfingers 7.12502
rthumb -19.831 630.623
lclavicle -4.77083e-014 -6.44062e-014
lhumerus -63.0055 -6.09073 96.1851
lradius 50.2672
lwrist 9.89574
lhand 0.995463 12.2718
lfingers 7.12502
lthumb 26.5435 40.4321
rfemur -16.2181 -6.1176 35.5386
rtibia 32.4218
rfoot -18.841 0.429324
rtoes 32.8773
lfemur -41.878 -6.31473 -8.79586
ltibia 66.2503
lfoot 1.6098 -2.97371
ltoes 21.8238
866
root 5.17713 16.7572 3.83621 2.93603 9.21059 -11.0208
lowerback 0.0189176 3.09207 6.1244
upperback 4.29451 3.78753 6.09049
thorax 4.44032 1.99647 3.06006
lowerneck -8.16799 -6.70082 1.59315
upperneck 38.6035 -9.93765 -0.628765
head 14.5632 -3.99497 -1.90823
rclavicle 7.91163e-014 8.74653e-015
rhumerus -19.699 34.7175 -84.7749
rradius 136.435
rwrist -10.3076
rhand -47.1387 -60.2938
rfingers 7.12502
rthumb -19.8406 630.699
lclavicle 7.91163e-014 8.74653e-015
lhumerus -62.8405 -6.20137 96.3654
lradius 50.2868
lwrist 9.40388
lhand 1.28956 12.0511
lfingers 7.12502
lthumb 26.825 40.1685
rfemur -16.0879 -6.52967 35.629
rtibia 32.2712
rfoot -19.0605 1.0221
rtoes 33.1977
lfemur -42.1349 -6.34391 -8.6806
ltibia 66.6494
lfoot 1.9253 -2.8834
ltoes 22.1327
867
root 5.16263 16.7592 3.86313 2.98021 9.26756 -11.0454
lowerback -0.0625726 3.09562 5.99017
upperback 4.29248 3.78804 6.08662
thorax 4.47498 1.99235 3.13507
lowerneck -8.1367 -6.72273 1.672
upperneck 38.6346 -10.0236 -0.534306
head 14.5733 -4.00729 -1.8947
rclavicle 1.19271e-015 -3.97569e-015
rhumerus -19.9184 34.692 -84.9932
rradius 136.491
rwrist -10.3324
rhand -47.1473 -60.1698
rfingers 7.12502
rthumb -19.8489 630.824
lclavicle 1.19271e-015 -3.97569e-015
lhumerus -62.7378 -6.30957 96.4713
lradius 50.3961
lwrist 8.88549
lhand 1.62313 11.7913
lfingers 7.12502
lthumb 27.1441 39.8592
rfemur -15.9453 -6.85323 35.6719
rtibia 32.0996
rfoot -19.2658 1.54203
rtoes 33.4415
lfemur -42.3534 -6.27441 -8.62778
ltibia 66.9912
lfoot 2.2355 -2.83217
ltoes 22.534
868
root 5.14799 16.7624 3.8903 3.04718 9.25481 -11.0418
lowerback -0.143646 3.11502 5.85283
upperback 4.28236 3.81135 6.0556
thorax 4.5022 1.9997 3.18392
lowerneck -8.11573 -6.73222 1.73676
upperneck 38.6606 -10.0873 -0.44231
head 14.5844 -4.01268 -1.8772
rclavicle -6.4605e-014 -3.49861e-014
rhumerus -20.1123 34.7236 -85.2126
rradius 136.541
rwrist -10.3431
rhand -47.1628 -60.001
rfingers 7.12502
rthumb -19.8637 630.994
lclavicle -6.4605e-014 -3.49861e-014
lhumerus -62.6938 -6.39527 96.5167
lradius 50.5855
lwrist 8.472
lhand 1.91849 11.5469
lfingers 7.12502
lthumb 27.4266 39.5704
rfemur -15.7967 -7.06805 35.6991
rtibia 31.9103
rfoot -19.455 1.97072
rtoes 33.5983
lfemur -42.5308 -6.09845 -8.60385
ltibia 67.2771
lfoot 2.5068 -2.81698
ltoes 23.0452
